<mxfile host="app.diagrams.net" modified="2023-06-20T09:13:18.019Z" agent="Mozilla/5.0 (Windows NT 10.0; Win64; x64) AppleWebKit/537.36 (KHTML, like Gecko) Chrome/114.0.0.0 Safari/537.36" etag="tWrQSgRyY-MjQJEgh4Bg" version="21.5.0" type="github">
  <diagram name="Page-1" id="SV9kGnspiG5IxeSzF4UC">
    <mxGraphModel dx="1434" dy="739" grid="1" gridSize="10" guides="1" tooltips="1" connect="1" arrows="1" fold="1" page="1" pageScale="1" pageWidth="850" pageHeight="1100" math="0" shadow="0">
      <root>
        <mxCell id="0" />
        <mxCell id="1" parent="0" />
        <mxCell id="RaZoj-XQZAgaO3lWPKiD-1" value="Actor" style="shape=umlActor;verticalLabelPosition=bottom;verticalAlign=top;html=1;outlineConnect=0;" parent="1" vertex="1">
          <mxGeometry x="30" y="330" width="30" height="60" as="geometry" />
        </mxCell>
        <mxCell id="RaZoj-XQZAgaO3lWPKiD-2" value="" style="rounded=0;whiteSpace=wrap;html=1;" parent="1" vertex="1">
          <mxGeometry x="120" y="30" width="1040" height="740" as="geometry" />
        </mxCell>
        <mxCell id="RaZoj-XQZAgaO3lWPKiD-4" value="" style="rounded=0;whiteSpace=wrap;html=1;" parent="1" vertex="1">
          <mxGeometry x="300" y="40" width="650" height="600" as="geometry" />
        </mxCell>
        <mxCell id="RaZoj-XQZAgaO3lWPKiD-3" value="API Gateway" style="rounded=0;whiteSpace=wrap;html=1;" parent="1" vertex="1">
          <mxGeometry x="130" y="340" width="120" height="60" as="geometry" />
        </mxCell>
        <mxCell id="RaZoj-XQZAgaO3lWPKiD-20" style="edgeStyle=orthogonalEdgeStyle;rounded=0;orthogonalLoop=1;jettySize=auto;html=1;exitX=1;exitY=0.5;exitDx=0;exitDy=0;entryX=0;entryY=0.5;entryDx=0;entryDy=0;" parent="1" source="RaZoj-XQZAgaO3lWPKiD-5" target="RaZoj-XQZAgaO3lWPKiD-6" edge="1">
          <mxGeometry relative="1" as="geometry" />
        </mxCell>
        <mxCell id="RaZoj-XQZAgaO3lWPKiD-5" value="IAM Service" style="rounded=0;whiteSpace=wrap;html=1;" parent="1" vertex="1">
          <mxGeometry x="320" y="80" width="120" height="60" as="geometry" />
        </mxCell>
        <mxCell id="RaZoj-XQZAgaO3lWPKiD-6" value="Notification Service" style="rounded=0;whiteSpace=wrap;html=1;" parent="1" vertex="1">
          <mxGeometry x="690" y="160" width="120" height="60" as="geometry" />
        </mxCell>
        <mxCell id="RaZoj-XQZAgaO3lWPKiD-7" value="Inventory Service" style="rounded=0;whiteSpace=wrap;html=1;" parent="1" vertex="1">
          <mxGeometry x="320" y="240" width="120" height="60" as="geometry" />
        </mxCell>
        <mxCell id="RaZoj-XQZAgaO3lWPKiD-8" value="Order Service" style="rounded=0;whiteSpace=wrap;html=1;" parent="1" vertex="1">
          <mxGeometry x="320" y="380" width="120" height="60" as="geometry" />
        </mxCell>
        <mxCell id="RaZoj-XQZAgaO3lWPKiD-9" value="Training Service" style="rounded=0;whiteSpace=wrap;html=1;" parent="1" vertex="1">
          <mxGeometry x="320" y="510" width="120" height="60" as="geometry" />
        </mxCell>
        <mxCell id="RaZoj-XQZAgaO3lWPKiD-11" value="MongoDb&lt;br&gt;" style="dashed=0;outlineConnect=0;html=1;align=center;labelPosition=center;verticalLabelPosition=bottom;verticalAlign=top;shape=mxgraph.webicons.mongodb;gradientColor=#DFDEDE" parent="1" vertex="1">
          <mxGeometry x="360" y="150" width="40" height="40" as="geometry" />
        </mxCell>
        <mxCell id="RaZoj-XQZAgaO3lWPKiD-13" value="" style="outlineConnect=0;dashed=0;verticalLabelPosition=bottom;verticalAlign=top;align=center;html=1;shape=mxgraph.aws3.mysql_db_instance;fillColor=#2E73B8;gradientColor=none;" parent="1" vertex="1">
          <mxGeometry x="355" y="310.5" width="50" height="39.5" as="geometry" />
        </mxCell>
        <mxCell id="RaZoj-XQZAgaO3lWPKiD-14" value="" style="outlineConnect=0;dashed=0;verticalLabelPosition=bottom;verticalAlign=top;align=center;html=1;shape=mxgraph.aws3.mysql_db_instance;fillColor=#2E73B8;gradientColor=none;" parent="1" vertex="1">
          <mxGeometry x="355" y="580" width="50" height="39.5" as="geometry" />
        </mxCell>
        <mxCell id="RaZoj-XQZAgaO3lWPKiD-15" value="" style="outlineConnect=0;dashed=0;verticalLabelPosition=bottom;verticalAlign=top;align=center;html=1;shape=mxgraph.aws3.mysql_db_instance;fillColor=#2E73B8;gradientColor=none;" parent="1" vertex="1">
          <mxGeometry x="355" y="450" width="50" height="39.5" as="geometry" />
        </mxCell>
        <mxCell id="RaZoj-XQZAgaO3lWPKiD-17" value="MongoDb&lt;br&gt;" style="dashed=0;outlineConnect=0;html=1;align=center;labelPosition=center;verticalLabelPosition=bottom;verticalAlign=top;shape=mxgraph.webicons.mongodb;gradientColor=#DFDEDE" parent="1" vertex="1">
          <mxGeometry x="820" y="170" width="40" height="40" as="geometry" />
        </mxCell>
        <mxCell id="RaZoj-XQZAgaO3lWPKiD-19" value="" style="shape=image;verticalLabelPosition=bottom;labelBackgroundColor=default;verticalAlign=top;aspect=fixed;imageAspect=0;image=data:image/png,iVBORw0KGgoAAAANSUhEUgAAAIoAAAA6CAYAAABvTcERAAAXhklEQVR4nO2dd3hU1dbGf6dMSyYkIOVSA1KsyEWRXgTEQlMRERAVC9KLohiCCAhY6cjFcpEiYAMJCAiEHrCiKBCI4qeAIgGUEkiZmVO+P845OzPUhKLgnfd58kyeOefsuvbaa71r7TOSaZomUURxFsgXopCorP3zoZ7rg7quAyBJErIso+s6pmkiyzKyfEHkL4pLCFJhtx7TNDF0HUU9vYzpmo6iKufduCguHRRKUEzTRJIkANK3beOjDz9i29at5ObmUKzYFdSrX4+OnTtTrFgxNE1DPYMwRXF5ocCCEi4ko0eOYsY77yBJkrBPJKxtyO318vKrr9CqdeuosPyDUOBZNAwDRVFIemYQCz7+GFlRUBWFYDCIBBimidfjIS8nlyf79ccwDNq0bRvdhv4hKJBG0TUNRVVZsngxT/UbgKJaAiLLMomJiZQuU4bt27eTdfQoiqIQCoVwu92s3ZBGyZIlMQwjauBe5ijQ7MmKpRHenPoGhmmg6zqSJDFk6FBS16xm1pzZpH22kTtbtkTXdbxeL7qmMWvGTMDSRlFc3jiroBiGgSRJ7Nm9m4wdO5AVBdM0aX/ffTz8SFcMwxIcn8/HxNcnU6ZsWQKBAIZpsnHDBgAUJbr1XO44q6A4O1NmZqbFk9gG7a0tWojrznYD0LBRQ2HkHjhwgEAgEGH0RnF5osDG7IneS05uDmARb7Isi+0lJzsn/xlFOa1tYpqmIO3A8pgc8i6KSw9nnRXHJS5foQJerxdN0zBNk7mz5wDgdruRJAmPx0Pmvn2kpqYKzVO+QgVcLpewaRzomoYkSaiqKv4UW6ic8qO4tHBWjeLQ8yVKlKBO3bqsX7cOl8vFN5s20btHTwY+8zRFixYjI2MHQ5OHkJebi8fjIRQMcUfLO08qT7dZ3WAwSNq69Wzfvp1AXh5ly5ejfv0GJFZMzL8vattcMiiYe2xPWvq2bdzdpi2maQpNYRgGsbGx5ORYW47H4yEYDJKYmMiylakotvErSZJwkz9ZtIiXX3yJgwcORNRjGAbt7r2XEaNG4vP5osJyCaHAzKxDnH34/gc8l5yMaZq43W6CwaAwaB3t4/X5WLAwhcpVqojJdj6nTH6dSRMmYBgGbrdbBBNVVUXTNAAqVqrE/JQF+P3+KAdziaDAM6Co1mR36Hg/b7z9NmXKlCEUCgkhMQwDTdOoXacOS5cvs4RE0ywhsT/XrF7NxPHjMUF4SpqmIcsyoVAIXddxu93s+uUXnuzX/yJ2O4rCotDRY4elNU2TRSkpJCcNJhgMUrlKFcaMG8v11aufdB9YRnGbO1uSkZEhtMc97drRvWcPYmJj+WzjRkYOH0F2djaqqqLrOjNnv0u9+vXPugUZhmHVYwLS38fbmKaZTy6aJrKiCGrAMAywx+JMkfdLFYXW6Yo9yZIk0bJ1a2JiY5EliYoVK3J99epommbFhezBcAi77enpZGRkiG2oZatWvDp2DJWrVKF06dLc2749b7z9VkRdS5csOWt7nBwYRVFQVOVvExLHs1MUxW6LKuwy8b2qXpZCAueRuASQlZVlrWYQhNvpVv9PP/0kuBLTNOn66CNgP+dsXXXr1eOGGjXY8v331jM7dwJEuNbhcIzk7enp/PzzzyiyQnxCPPUbNDifbhUaTp+DwSBLFy9h69Yt7N61m27dn6BO3br8/vvvfPvNN6iqiizLNGrcGJ/PFxGRv9RRaEHRNV2Qb5IkYdqqVtMtQ9Tj8dj3aRGrJzcnF8hnemNiYgFERpyjsuPi/EhYu0gwGBL1nLItutWWmdNnsDAlBdM0SUxMZMXqVX/ZJDhC8vPPP9O1y4Psz8zEME1URaXZrc2pU7cuX33xJUmDBoktck3aesqVK3dZCUqBtx7TNC3DVVXY+eOPDE0eQru77ubYsWMYhsFXX3zJXa3bMHXKFI4dO4aiquiaJtjX66tfLwZGkiTS1q8X5YZCIVRV5ciRI2z+drNlakgSpUuXBohgcMPhDHJMbCyGrqPrOnFxceczHoWG45EN6NuP/ZmZqC6X1SctRNGEogDCu1MUBY/Hc1l6cQVqcfgEjx87lpa338EH77/P3t9+swqxvZbt6elMGDuOWxo1ZlXqShRVxe12A7B82XJh1BmGwbgxY1i7Zg2qquJyuTh+/DgD+vYl1ybsJKBho0bA6TWKA0PXwW6ffopIteOR6boubKhT9VHXdXRNtz814bqfWIYjuI5dsm3rVnZs346iqoRCIe5t355N322mSdNbrPFRZKtt9rMn+g+i7rC/U7YvrH7nz+mLaZonte9ColBbz1P9B7Bk8WIg37NwbBNJknDZqynr6FF6du/O6Jdfonz58gwe9Cx79+4FrAF3uVyEgiG6PfoYN9SoQbFixfhm0yaOHz+OqqoEAgFKlCzJPfe2AzivFeis5BPLCFf7Dkd0OkPYydQLLyP8+aysLCGkhmEwaHASCQkJBQpFOOWcyQh3+nA6Q9i5fjGzCc9astOISRMmsGTxYtEhLaQhyRJut5tYv5/Dhw6JOI1scyfJzyaJciRJwufzUbxECfb+9huKarmOW77/XngHXq+XQCAAwJhxY/F4POecTilJkrCTDh48yNbvt+CL8ZGdnU3JkqW4ocYNYjUqqsLhQ4dZunQJm7/9lsOHDhMTG0PNmjW5u107ihUrxo8//MDevXtRFAW/38+NN91EXm4uO3bs4OuvvrK2Zjs8sW7tWooXL07lKlUoW7asZXCdAqZhINtUwIa0NBRFRdctXqlho0Z2HywhNgyDFcuW89nGjezbtw9FUahStSpt2rblqquv4o8//mDrli24XC4woVbtm/F6vRfMDjrjDDjpj7/88guTJky0KrQnNdYfy6DBSTRv3pyY2FgOHjjAnNmzmTVjJrpNojmuq+PRjBg1krJly9KnZ0/WrlmbP2B2EDEUDFGkSBEmTJ5E/QYN0M8j59aJKR07doz2d9/Dvn37RJ/mL0wR9SqKwszpMxjz2msE8vLE9wDLP13GmFdfY9ac2axMTWXGO9MxDYOy5cuzet1aDh0+TId724tt2TAMdE1j0MCnURSFUS+O5r7770c3IrcCMXH2Z/++fUldvsIab1kmeehQGjVuTCgUwuVy8eUXXzD42SR++/XXiPatXrWKN6dOZfCQZK6sXJme3Z4QW++qtWuokJj41wiK06DZs2YhyzKqvQf7/X4WfLKIihUrinvj4uIYOmwYV19zjdAkjrD07d+ffgPymda3pk1jzerVpHy8gJ07fyQUDFGiZEkaN2lM5y5dKFKkyEleU2HhxJge6NiJfb/vQ5KtwUr5ZBHXV69OMBjE7XYz+oWRzJo5E13XRZzKGVjH0H7k4a5Uq1ZN8EexsbHiuiRJSERORL7gmBHjeOK4KorCiGHDSF22HLfHQyAQIHnoUB7q+rBo3/Jly+jbsxcmllEcCATyt0C7nJdGv0itm2sJO+3EbfJC4Iwz4WwzaevThNcjSRKDhyRTsWJF8vLyRJqBY6Te16EDa1atZmVqqhCsoL2dBINBYcc0bdaMps2aiYE7MQ3hXIUk3FB9/JFH7aw8KwY1fdYsrq9endzcXHw+HykfL2DWzJmCxwkFQ9xQowZ16tZBVV2kb9vGurVrycvNZct336GoqmU42xMUHx/P2Anj+ebrTcydM0cIyFPPPE18fDw31brJGkc50v7QbLtu6pQpzH13Ni63m2AgQO++fSKEZM/u3fTp2UvE1UKhEOXKlaNp8+YULZrA7t27WbkilZycHDZ9tQkk2+i9CKmnp50NJxh38OBB9u3bJ1ZXTGwsze3sNo/HIyY43Bhre/ddrLTzUgA2b95sVWazlZIkWasTIhhMZ6s7H03itGfwoGfZsH69CBdMev11GjZqSDAYxOfzoWka48aMiRCsUS+NpkPHjhHlffvNNzzxeDeOHD4sBMTZMmJiYmh7110UL16c9+bOtS7JMp06dSI+ISG/TXLYItB1SpYqxdLFSxg/dpxt2Afp/GAX+j/5ZARhOX7sOJHrEwwGub9TR0aOHh3Rvj///JMe3Z7gu82bRVD2YuCs+ikvN1eoY0mSSIiPPytXUaJECeEKm6ZJXq5FtoVrDdWms8M1lSNI54OYmBhenzSZj+fNA1sgXxg1ijtbtUSzg5MAaevXk5mZidvtxjRN+g0YQIeOHYULrWkaoVCIG2+6iclTXhf9D4ezELKysiK+P3zkCGBp0HAYhkFcXBwLF6TQr08f4dK2btuWYSNG5BvXimVcr15lEYfBQIDadeoIIXHc4FAoxBVXXMGMd2dRtGhRDN24aATeWQXF6/OJwTRNk8NHjnDs2LEzPnPgwAGR1ihJEl6fD4jcq3VNE5luDq1/vtltsiyz5fvvmTBuHCbWxCQlD6Zj506CxRVa7ltLy4VCIWJiYnio68MAEZl3LpcLTdOoV78+tW6uddJqdSblRINbtYXxxElTFIXs7Gyef+458d1td9zO2AnjT+pLRsYOcnJyrLIlie49ewD5rrqiKLhcLoLBILGxsTzwYBckWbICkec6gGfAaQXFMYZKlChBmTJlrFOAbjeBvDxWpa4EsLLtba0RTv4sSlkI5A9UzZo1RScdTRMeIHO2OUej6HZeSqE7I8vCvXaEr0nTphH3OG06sH8/YAlvlapViY+PP2PuS/XqNxR4tZ5J2J0xcGy7Bg0aAohzUg4O2otN13VcLhfVqlUTfQyHoyGrV7/BqtuOvV1onFGjOCuoUeNGIvveNE1eGj2aXbt24fV6hdZwJPyjDz9kZWoqgEhEctvxH2dwZFlm9arV9OvThztvu50WzZrRqUMH3vjPf8jKyhL0f2GhaRrXXncd/65ZU0Rtuz/+uLB9zkdbBW0D9FQoaLm6rpNQtCi3tmghiMrnkpPJyMiwaH5NO8kOsv49edsLqxzIj7X9LVuPU2mXhx5CNwxL6hWF48ePc3frNsydM4fMfZlkZWXxfz/9xAvDh5P8bFIE7S1JEpMnTuShB7rwyy+/EAgEePyRR+nRrRvLln7KTzt3smf3HjZ9vYnxY8bStFFj1q9bd87C4vf7mTBpoiD+9uzew5CkwVZ7wujz0mVKiz7+tHMnR48ejQhOijGwPzd/++15J31LkkRuTg7PDx/OtdddJ2yzfr16Cy3r1FCqVCnB8wSDQX744QerDye0z/FwNn29yankr916ID+xumLFivQbMMDySOxob/bxbIYPfZ6mjRvTrMkt3H5rC2bPehewPBmnQ87nF59/TtuWrbj91haWICj5lLmzTbjcbrKysnis6yN8tnGjyH0pDLKOHqVc+fIMf2EE2OmW8+fNY2FKSkR5NW+8EQCXy0VOTg4zp08HLNUdbiwqqsqqlSvZkZ5+3rkukiQRCoXw+bxMmDzJGitFYdeuXQwZnGzVbwvjVVddhd/vtzSPaTJ1yn8AhBfntM/tdvPnn3/ywXvvCcLvL996nI5YXkF/WrdpI2wR1aWKdMajR45EGIGGfdbnxVde5t25cywaG8jNzbXoe0URnkWNf/+bJrfcQnx8vOBZAJ5+aiCBQCDCAC0IVPv5Lg89RJOmTYXnkfTMIH799Ve8Xi+GYdCgYUNKly4tPLrJEyfx3py5KGHHRxxWdOCAJzFsY/58oSgKR48epVKlSiQlD8Z0hPmjj1i0cCEul4u8vDwSihalWfPmyLKM2+Nh09dfk5yUZI19WPsO7N/Pow93JScn56ImbRWKvhs7YTw9evUEE+FGhnstoVAIQ9cpEh/P1Dff5L4OHahbrx5rN6TRo1cvq0I70uxyuZg2YzrzFnzM2+9MY93GDdRvUB9N0/B4PPx58CAL5n8MnPvZ5VfHjiEuLk5Efvv26g3kU/dPDhwosuMAhg0dyt1t2jL6hZG8+vLLPNylCw907ER2drbFvl6g/d8R5se6daNeg/pCmJ99+hl+++03vF4vAP2fHGDRC3l5qKrKvA8/oknDhjyXnMyYV1+jf5++NL+lKdvT08G8uGe8CyQojiCYpsmTAweydMUyOnXuTPkKFYD8iPB111/PgIFPsW5DGs1b3IquaWIQbr/jdmHIyrLMU08/TeMmTQRf4ff7mTB5Mj6fj0AggAlsSEsDzm4sSmGUtmyTW6FQiISEBF4bOxZZlvF6vWxPT+eVl14SmvDudvfQucsDIvTvclls7MwZM/jvW2/z2cbPLPfe66V6jerCZjrR85Akya5bRj6F4Rlx3Tb+HYwZPx6vzyuEuX+fvmJMKyQmMnHy5IjFte/3fXz4/ge89cYbfLpkieCobqx1E4qdoytfBIO2wBrF0Ry6plO1WjVGjBrJ/AULiIuLQ5Zl6tSrS8oni+jZuzd+v1/Q8M5q3bZ1W4TANWrcWJTr8BUJCQnUvLGmleFmmiKQdzqV6ghQIBCwJkiWybEz6Zy9vNmtzencpYs4VvLOf6ex+JNPrHNJmsawESMYlPQsXq+XUCgk2ohtaDqar07dusJ9z7XPMDn1a5qGZNtzp8p3cU4a6LpOMBgU14PBIMWLF+fVMWMs4TNN0rdtY+iQIUI4WrZuxfSZM8WpByd+hmlaGk6SGJSURM/evfI9oNPk3JwPCs2VK6oiSB/d0MVqduIZgUAAt9t9Eg3vi7FIN2c15eRkA/mekYNjx44LY8zttlT06SKgjgB16/4ErVq1QlZk/P44UY9zfcjQ52hxWwsRe4orUsS6x/ZyHuvWjbvuuYfly5ax5bvvOXL0CLGxfmrUqEGbu9pSrFgxrrjiCho0aIisyMT6/RH1165dh3dmzBAvDCpZqlTE9Xr16zPNvi5JEiVKlLD7ZxGZd9x5Jx/On0d2dg6KIqPrhuBPdF2nQaOGrF63lhXLV/Dll1+yPzMTRVWoWrUqd7ZsRbWrqnHo0CH+O306qkuNaMMFc5fNc0AoFDJN0zSDwaBZq+aNZrVKV5rdH+8mrum6Lu7VNM00TdPcnp5uVqlYybyqchWzaqUrzX69+5xU7pdffGFWqVjJvLpKVbNqpSvN5wYnR5RxKhiGcca2nu56+PdnKt808/t7IesvzD1nqt80z97+C4FzSK7WhCfy6ZIl5GRnY5gmu3btYtvWrSed63FU5TXXXstVV1/ND/a5nqVLluD1enmiR3d8MTF88fnnjBw+ImIVtGzd6qztCQ8onipAGXGuhvzjHeF2hhM9NsPOBjmq3fHmTleHU374QfxT1X+66849J4YHwu9xxttJ+XT64TzreKZnquN8UagDYE5kc9XKVYx4/nkyMzMF6+lMRO06dXhlzGuUK1dOCIvzuXbNGp547PGIRB/H3XP+9/l8BINBmtzShLemTYseKb1EUOizxx+89z5DhwwR8YpgMGhZ9KqCLFkGm8frJWXRwlOePZ46ZQoTxo7HME9/9vjKypWZt+BjYmNjo4JyieCCvM3A7/eTnW0Zp07uRIXECixfufKUbzNY/MknvDhqNH8cPBhRj2EYtL/vPoaPfMF6D1z0bQaXDAolKI8/8qh4P0ooFKLFbbcxcNAzFCtalIyMDJ4bnMzu3bvF+1GeHzGMBx58MGLCw0/VbVifZr0fJRCgTNky0fejXMI4q6CEZ7o1a9yEPDsB+ebatZn7wfsR9+7PzOTWZs3Jy81FAmrXrcvs9+aeNOlnSnV0kosulxN0/yso8Mv+ft2zR1DJkiTR6YHOAILICgQClPrXv2jRooW1zZgmv+7ZI84Wh8ujk9nmxHucIJdj2EaF5NJDgd3jE923GF8MQD5tbBucMbEx4h4tLJnpRDhuZxSXBwr8sr9SpUoJTQGQumKFuO6wiAAb0jYI47VkyZJ4PJ4LdrYkir8PZxUUhzCrkJjINddei2GTOvPnzWPGO9NF9DU3N5f+ffry+9691kFsSaJBQyvN72Jlhkfx1+GCvQs/PT2dY1lZIjLr8XhYk7Y++i78fwgKTrjZnkvSoGdJmT8fU5JO/nUNr5dAXgBJlhg/aSKtWreO/rrGPwQFXuaORnj51Vd4qGtXDDsVD6zwiHV2OIg3xieERNO0qJD8QxD9BbAoCoTobwpGUSAUWlAcRH+l9H8L5ywo4YjyJP98/D9Ze+35148AuQAAAABJRU5ErkJggg==;" parent="1" vertex="1">
          <mxGeometry x="580" y="70" width="71.38" height="30" as="geometry" />
        </mxCell>
        <mxCell id="IpySQoxf5-p5Oazan-Eo-2" value="Async&lt;br&gt;Communication" style="text;html=1;strokeColor=none;fillColor=none;align=center;verticalAlign=middle;whiteSpace=wrap;rounded=0;" vertex="1" parent="1">
          <mxGeometry x="570.69" y="155" width="90" height="30" as="geometry" />
        </mxCell>
        <mxCell id="IpySQoxf5-p5Oazan-Eo-3" value="" style="rounded=0;whiteSpace=wrap;html=1;" vertex="1" parent="1">
          <mxGeometry x="280" y="40" width="810" height="620" as="geometry" />
        </mxCell>
        <mxCell id="IpySQoxf5-p5Oazan-Eo-4" style="edgeStyle=orthogonalEdgeStyle;rounded=0;orthogonalLoop=1;jettySize=auto;html=1;exitX=1;exitY=0.5;exitDx=0;exitDy=0;entryX=0;entryY=0.5;entryDx=0;entryDy=0;" edge="1" source="IpySQoxf5-p5Oazan-Eo-5" target="IpySQoxf5-p5Oazan-Eo-6" parent="1">
          <mxGeometry relative="1" as="geometry" />
        </mxCell>
        <mxCell id="IpySQoxf5-p5Oazan-Eo-5" value="IAM Service" style="rounded=0;whiteSpace=wrap;html=1;" vertex="1" parent="1">
          <mxGeometry x="400" y="90" width="120" height="60" as="geometry" />
        </mxCell>
        <mxCell id="IpySQoxf5-p5Oazan-Eo-6" value="Notification Service" style="rounded=0;whiteSpace=wrap;html=1;" vertex="1" parent="1">
          <mxGeometry x="770" y="170" width="120" height="60" as="geometry" />
        </mxCell>
        <mxCell id="IpySQoxf5-p5Oazan-Eo-20" style="edgeStyle=orthogonalEdgeStyle;rounded=0;orthogonalLoop=1;jettySize=auto;html=1;exitX=1;exitY=0.5;exitDx=0;exitDy=0;entryX=0;entryY=0.5;entryDx=0;entryDy=0;" edge="1" parent="1" source="IpySQoxf5-p5Oazan-Eo-7" target="IpySQoxf5-p5Oazan-Eo-19">
          <mxGeometry relative="1" as="geometry" />
        </mxCell>
        <mxCell id="IpySQoxf5-p5Oazan-Eo-7" value="Inventory Service" style="rounded=0;whiteSpace=wrap;html=1;" vertex="1" parent="1">
          <mxGeometry x="400" y="250" width="120" height="60" as="geometry" />
        </mxCell>
        <mxCell id="IpySQoxf5-p5Oazan-Eo-8" value="Order Service" style="rounded=0;whiteSpace=wrap;html=1;" vertex="1" parent="1">
          <mxGeometry x="400" y="400" width="120" height="60" as="geometry" />
        </mxCell>
        <mxCell id="IpySQoxf5-p5Oazan-Eo-24" style="edgeStyle=orthogonalEdgeStyle;rounded=0;orthogonalLoop=1;jettySize=auto;html=1;entryX=0;entryY=0.5;entryDx=0;entryDy=0;" edge="1" parent="1" source="IpySQoxf5-p5Oazan-Eo-9" target="IpySQoxf5-p5Oazan-Eo-19">
          <mxGeometry relative="1" as="geometry" />
        </mxCell>
        <mxCell id="IpySQoxf5-p5Oazan-Eo-9" value="Training Service" style="rounded=0;whiteSpace=wrap;html=1;" vertex="1" parent="1">
          <mxGeometry x="400" y="550" width="120" height="60" as="geometry" />
        </mxCell>
        <mxCell id="IpySQoxf5-p5Oazan-Eo-10" value="MongoDb&lt;br&gt;" style="dashed=0;outlineConnect=0;html=1;align=center;labelPosition=center;verticalLabelPosition=bottom;verticalAlign=top;shape=mxgraph.webicons.mongodb;gradientColor=#DFDEDE" vertex="1" parent="1">
          <mxGeometry x="440" y="160" width="40" height="40" as="geometry" />
        </mxCell>
        <mxCell id="IpySQoxf5-p5Oazan-Eo-11" value="" style="outlineConnect=0;dashed=0;verticalLabelPosition=bottom;verticalAlign=top;align=center;html=1;shape=mxgraph.aws3.mysql_db_instance;fillColor=#2E73B8;gradientColor=none;" vertex="1" parent="1">
          <mxGeometry x="435" y="320.5" width="50" height="39.5" as="geometry" />
        </mxCell>
        <mxCell id="IpySQoxf5-p5Oazan-Eo-12" value="" style="outlineConnect=0;dashed=0;verticalLabelPosition=bottom;verticalAlign=top;align=center;html=1;shape=mxgraph.aws3.mysql_db_instance;fillColor=#2E73B8;gradientColor=none;" vertex="1" parent="1">
          <mxGeometry x="435" y="619.5" width="50" height="39.5" as="geometry" />
        </mxCell>
        <mxCell id="IpySQoxf5-p5Oazan-Eo-13" value="" style="outlineConnect=0;dashed=0;verticalLabelPosition=bottom;verticalAlign=top;align=center;html=1;shape=mxgraph.aws3.mysql_db_instance;fillColor=#2E73B8;gradientColor=none;" vertex="1" parent="1">
          <mxGeometry x="435" y="470.5" width="50" height="39.5" as="geometry" />
        </mxCell>
        <mxCell id="IpySQoxf5-p5Oazan-Eo-14" value="MongoDb&lt;br&gt;" style="dashed=0;outlineConnect=0;html=1;align=center;labelPosition=center;verticalLabelPosition=bottom;verticalAlign=top;shape=mxgraph.webicons.mongodb;gradientColor=#DFDEDE" vertex="1" parent="1">
          <mxGeometry x="900" y="180" width="40" height="40" as="geometry" />
        </mxCell>
        <mxCell id="IpySQoxf5-p5Oazan-Eo-15" value="" style="shape=image;verticalLabelPosition=bottom;labelBackgroundColor=default;verticalAlign=top;aspect=fixed;imageAspect=0;image=data:image/png,iVBORw0KGgoAAAANSUhEUgAAAIoAAAA6CAYAAABvTcERAAAXhklEQVR4nO2dd3hU1dbGf6dMSyYkIOVSA1KsyEWRXgTEQlMRERAVC9KLohiCCAhY6cjFcpEiYAMJCAiEHrCiKBCI4qeAIgGUEkiZmVO+P845OzPUhKLgnfd58kyeOefsuvbaa71r7TOSaZomUURxFsgXopCorP3zoZ7rg7quAyBJErIso+s6pmkiyzKyfEHkL4pLCFJhtx7TNDF0HUU9vYzpmo6iKufduCguHRRKUEzTRJIkANK3beOjDz9i29at5ObmUKzYFdSrX4+OnTtTrFgxNE1DPYMwRXF5ocCCEi4ko0eOYsY77yBJkrBPJKxtyO318vKrr9CqdeuosPyDUOBZNAwDRVFIemYQCz7+GFlRUBWFYDCIBBimidfjIS8nlyf79ccwDNq0bRvdhv4hKJBG0TUNRVVZsngxT/UbgKJaAiLLMomJiZQuU4bt27eTdfQoiqIQCoVwu92s3ZBGyZIlMQwjauBe5ijQ7MmKpRHenPoGhmmg6zqSJDFk6FBS16xm1pzZpH22kTtbtkTXdbxeL7qmMWvGTMDSRlFc3jiroBiGgSRJ7Nm9m4wdO5AVBdM0aX/ffTz8SFcMwxIcn8/HxNcnU6ZsWQKBAIZpsnHDBgAUJbr1XO44q6A4O1NmZqbFk9gG7a0tWojrznYD0LBRQ2HkHjhwgEAgEGH0RnF5osDG7IneS05uDmARb7Isi+0lJzsn/xlFOa1tYpqmIO3A8pgc8i6KSw9nnRXHJS5foQJerxdN0zBNk7mz5wDgdruRJAmPx0Pmvn2kpqYKzVO+QgVcLpewaRzomoYkSaiqKv4UW6ic8qO4tHBWjeLQ8yVKlKBO3bqsX7cOl8vFN5s20btHTwY+8zRFixYjI2MHQ5OHkJebi8fjIRQMcUfLO08qT7dZ3WAwSNq69Wzfvp1AXh5ly5ejfv0GJFZMzL8vattcMiiYe2xPWvq2bdzdpi2maQpNYRgGsbGx5ORYW47H4yEYDJKYmMiylakotvErSZJwkz9ZtIiXX3yJgwcORNRjGAbt7r2XEaNG4vP5osJyCaHAzKxDnH34/gc8l5yMaZq43W6CwaAwaB3t4/X5WLAwhcpVqojJdj6nTH6dSRMmYBgGbrdbBBNVVUXTNAAqVqrE/JQF+P3+KAdziaDAM6Co1mR36Hg/b7z9NmXKlCEUCgkhMQwDTdOoXacOS5cvs4RE0ywhsT/XrF7NxPHjMUF4SpqmIcsyoVAIXddxu93s+uUXnuzX/yJ2O4rCotDRY4elNU2TRSkpJCcNJhgMUrlKFcaMG8v11aufdB9YRnGbO1uSkZEhtMc97drRvWcPYmJj+WzjRkYOH0F2djaqqqLrOjNnv0u9+vXPugUZhmHVYwLS38fbmKaZTy6aJrKiCGrAMAywx+JMkfdLFYXW6Yo9yZIk0bJ1a2JiY5EliYoVK3J99epommbFhezBcAi77enpZGRkiG2oZatWvDp2DJWrVKF06dLc2749b7z9VkRdS5csOWt7nBwYRVFQVOVvExLHs1MUxW6LKuwy8b2qXpZCAueRuASQlZVlrWYQhNvpVv9PP/0kuBLTNOn66CNgP+dsXXXr1eOGGjXY8v331jM7dwJEuNbhcIzk7enp/PzzzyiyQnxCPPUbNDifbhUaTp+DwSBLFy9h69Yt7N61m27dn6BO3br8/vvvfPvNN6iqiizLNGrcGJ/PFxGRv9RRaEHRNV2Qb5IkYdqqVtMtQ9Tj8dj3aRGrJzcnF8hnemNiYgFERpyjsuPi/EhYu0gwGBL1nLItutWWmdNnsDAlBdM0SUxMZMXqVX/ZJDhC8vPPP9O1y4Psz8zEME1URaXZrc2pU7cuX33xJUmDBoktck3aesqVK3dZCUqBtx7TNC3DVVXY+eOPDE0eQru77ubYsWMYhsFXX3zJXa3bMHXKFI4dO4aiquiaJtjX66tfLwZGkiTS1q8X5YZCIVRV5ciRI2z+drNlakgSpUuXBohgcMPhDHJMbCyGrqPrOnFxceczHoWG45EN6NuP/ZmZqC6X1SctRNGEogDCu1MUBY/Hc1l6cQVqcfgEjx87lpa338EH77/P3t9+swqxvZbt6elMGDuOWxo1ZlXqShRVxe12A7B82XJh1BmGwbgxY1i7Zg2qquJyuTh+/DgD+vYl1ybsJKBho0bA6TWKA0PXwW6ffopIteOR6boubKhT9VHXdXRNtz814bqfWIYjuI5dsm3rVnZs346iqoRCIe5t355N322mSdNbrPFRZKtt9rMn+g+i7rC/U7YvrH7nz+mLaZonte9ColBbz1P9B7Bk8WIg37NwbBNJknDZqynr6FF6du/O6Jdfonz58gwe9Cx79+4FrAF3uVyEgiG6PfoYN9SoQbFixfhm0yaOHz+OqqoEAgFKlCzJPfe2AzivFeis5BPLCFf7Dkd0OkPYydQLLyP8+aysLCGkhmEwaHASCQkJBQpFOOWcyQh3+nA6Q9i5fjGzCc9astOISRMmsGTxYtEhLaQhyRJut5tYv5/Dhw6JOI1scyfJzyaJciRJwufzUbxECfb+9huKarmOW77/XngHXq+XQCAAwJhxY/F4POecTilJkrCTDh48yNbvt+CL8ZGdnU3JkqW4ocYNYjUqqsLhQ4dZunQJm7/9lsOHDhMTG0PNmjW5u107ihUrxo8//MDevXtRFAW/38+NN91EXm4uO3bs4OuvvrK2Zjs8sW7tWooXL07lKlUoW7asZXCdAqZhINtUwIa0NBRFRdctXqlho0Z2HywhNgyDFcuW89nGjezbtw9FUahStSpt2rblqquv4o8//mDrli24XC4woVbtm/F6vRfMDjrjDDjpj7/88guTJky0KrQnNdYfy6DBSTRv3pyY2FgOHjjAnNmzmTVjJrpNojmuq+PRjBg1krJly9KnZ0/WrlmbP2B2EDEUDFGkSBEmTJ5E/QYN0M8j59aJKR07doz2d9/Dvn37RJ/mL0wR9SqKwszpMxjz2msE8vLE9wDLP13GmFdfY9ac2axMTWXGO9MxDYOy5cuzet1aDh0+TId724tt2TAMdE1j0MCnURSFUS+O5r7770c3IrcCMXH2Z/++fUldvsIab1kmeehQGjVuTCgUwuVy8eUXXzD42SR++/XXiPatXrWKN6dOZfCQZK6sXJme3Z4QW++qtWuokJj41wiK06DZs2YhyzKqvQf7/X4WfLKIihUrinvj4uIYOmwYV19zjdAkjrD07d+ffgPymda3pk1jzerVpHy8gJ07fyQUDFGiZEkaN2lM5y5dKFKkyEleU2HhxJge6NiJfb/vQ5KtwUr5ZBHXV69OMBjE7XYz+oWRzJo5E13XRZzKGVjH0H7k4a5Uq1ZN8EexsbHiuiRJSERORL7gmBHjeOK4KorCiGHDSF22HLfHQyAQIHnoUB7q+rBo3/Jly+jbsxcmllEcCATyt0C7nJdGv0itm2sJO+3EbfJC4Iwz4WwzaevThNcjSRKDhyRTsWJF8vLyRJqBY6Te16EDa1atZmVqqhCsoL2dBINBYcc0bdaMps2aiYE7MQ3hXIUk3FB9/JFH7aw8KwY1fdYsrq9endzcXHw+HykfL2DWzJmCxwkFQ9xQowZ16tZBVV2kb9vGurVrycvNZct336GoqmU42xMUHx/P2Anj+ebrTcydM0cIyFPPPE18fDw31brJGkc50v7QbLtu6pQpzH13Ni63m2AgQO++fSKEZM/u3fTp2UvE1UKhEOXKlaNp8+YULZrA7t27WbkilZycHDZ9tQkk2+i9CKmnp50NJxh38OBB9u3bJ1ZXTGwsze3sNo/HIyY43Bhre/ddrLTzUgA2b95sVWazlZIkWasTIhhMZ6s7H03itGfwoGfZsH69CBdMev11GjZqSDAYxOfzoWka48aMiRCsUS+NpkPHjhHlffvNNzzxeDeOHD4sBMTZMmJiYmh7110UL16c9+bOtS7JMp06dSI+ISG/TXLYItB1SpYqxdLFSxg/dpxt2Afp/GAX+j/5ZARhOX7sOJHrEwwGub9TR0aOHh3Rvj///JMe3Z7gu82bRVD2YuCs+ikvN1eoY0mSSIiPPytXUaJECeEKm6ZJXq5FtoVrDdWms8M1lSNI54OYmBhenzSZj+fNA1sgXxg1ijtbtUSzg5MAaevXk5mZidvtxjRN+g0YQIeOHYULrWkaoVCIG2+6iclTXhf9D4ezELKysiK+P3zkCGBp0HAYhkFcXBwLF6TQr08f4dK2btuWYSNG5BvXimVcr15lEYfBQIDadeoIIXHc4FAoxBVXXMGMd2dRtGhRDN24aATeWQXF6/OJwTRNk8NHjnDs2LEzPnPgwAGR1ihJEl6fD4jcq3VNE5luDq1/vtltsiyz5fvvmTBuHCbWxCQlD6Zj506CxRVa7ltLy4VCIWJiYnio68MAEZl3LpcLTdOoV78+tW6uddJqdSblRINbtYXxxElTFIXs7Gyef+458d1td9zO2AnjT+pLRsYOcnJyrLIlie49ewD5rrqiKLhcLoLBILGxsTzwYBckWbICkec6gGfAaQXFMYZKlChBmTJlrFOAbjeBvDxWpa4EsLLtba0RTv4sSlkI5A9UzZo1RScdTRMeIHO2OUej6HZeSqE7I8vCvXaEr0nTphH3OG06sH8/YAlvlapViY+PP2PuS/XqNxR4tZ5J2J0xcGy7Bg0aAohzUg4O2otN13VcLhfVqlUTfQyHoyGrV7/BqtuOvV1onFGjOCuoUeNGIvveNE1eGj2aXbt24fV6hdZwJPyjDz9kZWoqgEhEctvxH2dwZFlm9arV9OvThztvu50WzZrRqUMH3vjPf8jKyhL0f2GhaRrXXncd/65ZU0Rtuz/+uLB9zkdbBW0D9FQoaLm6rpNQtCi3tmghiMrnkpPJyMiwaH5NO8kOsv49edsLqxzIj7X9LVuPU2mXhx5CNwxL6hWF48ePc3frNsydM4fMfZlkZWXxfz/9xAvDh5P8bFIE7S1JEpMnTuShB7rwyy+/EAgEePyRR+nRrRvLln7KTzt3smf3HjZ9vYnxY8bStFFj1q9bd87C4vf7mTBpoiD+9uzew5CkwVZ7wujz0mVKiz7+tHMnR48ejQhOijGwPzd/++15J31LkkRuTg7PDx/OtdddJ2yzfr16Cy3r1FCqVCnB8wSDQX744QerDye0z/FwNn29yankr916ID+xumLFivQbMMDySOxob/bxbIYPfZ6mjRvTrMkt3H5rC2bPehewPBmnQ87nF59/TtuWrbj91haWICj5lLmzTbjcbrKysnis6yN8tnGjyH0pDLKOHqVc+fIMf2EE2OmW8+fNY2FKSkR5NW+8EQCXy0VOTg4zp08HLNUdbiwqqsqqlSvZkZ5+3rkukiQRCoXw+bxMmDzJGitFYdeuXQwZnGzVbwvjVVddhd/vtzSPaTJ1yn8AhBfntM/tdvPnn3/ywXvvCcLvL996nI5YXkF/WrdpI2wR1aWKdMajR45EGIGGfdbnxVde5t25cywaG8jNzbXoe0URnkWNf/+bJrfcQnx8vOBZAJ5+aiCBQCDCAC0IVPv5Lg89RJOmTYXnkfTMIH799Ve8Xi+GYdCgYUNKly4tPLrJEyfx3py5KGHHRxxWdOCAJzFsY/58oSgKR48epVKlSiQlD8Z0hPmjj1i0cCEul4u8vDwSihalWfPmyLKM2+Nh09dfk5yUZI19WPsO7N/Pow93JScn56ImbRWKvhs7YTw9evUEE+FGhnstoVAIQ9cpEh/P1Dff5L4OHahbrx5rN6TRo1cvq0I70uxyuZg2YzrzFnzM2+9MY93GDdRvUB9N0/B4PPx58CAL5n8MnPvZ5VfHjiEuLk5Efvv26g3kU/dPDhwosuMAhg0dyt1t2jL6hZG8+vLLPNylCw907ER2drbFvl6g/d8R5se6daNeg/pCmJ99+hl+++03vF4vAP2fHGDRC3l5qKrKvA8/oknDhjyXnMyYV1+jf5++NL+lKdvT08G8uGe8CyQojiCYpsmTAweydMUyOnXuTPkKFYD8iPB111/PgIFPsW5DGs1b3IquaWIQbr/jdmHIyrLMU08/TeMmTQRf4ff7mTB5Mj6fj0AggAlsSEsDzm4sSmGUtmyTW6FQiISEBF4bOxZZlvF6vWxPT+eVl14SmvDudvfQucsDIvTvclls7MwZM/jvW2/z2cbPLPfe66V6jerCZjrR85Akya5bRj6F4Rlx3Tb+HYwZPx6vzyuEuX+fvmJMKyQmMnHy5IjFte/3fXz4/ge89cYbfLpkieCobqx1E4qdoytfBIO2wBrF0Ry6plO1WjVGjBrJ/AULiIuLQ5Zl6tSrS8oni+jZuzd+v1/Q8M5q3bZ1W4TANWrcWJTr8BUJCQnUvLGmleFmmiKQdzqV6ghQIBCwJkiWybEz6Zy9vNmtzencpYs4VvLOf6ex+JNPrHNJmsawESMYlPQsXq+XUCgk2ohtaDqar07dusJ9z7XPMDn1a5qGZNtzp8p3cU4a6LpOMBgU14PBIMWLF+fVMWMs4TNN0rdtY+iQIUI4WrZuxfSZM8WpByd+hmlaGk6SGJSURM/evfI9oNPk3JwPCs2VK6oiSB/d0MVqduIZgUAAt9t9Eg3vi7FIN2c15eRkA/mekYNjx44LY8zttlT06SKgjgB16/4ErVq1QlZk/P44UY9zfcjQ52hxWwsRe4orUsS6x/ZyHuvWjbvuuYfly5ax5bvvOXL0CLGxfmrUqEGbu9pSrFgxrrjiCho0aIisyMT6/RH1165dh3dmzBAvDCpZqlTE9Xr16zPNvi5JEiVKlLD7ZxGZd9x5Jx/On0d2dg6KIqPrhuBPdF2nQaOGrF63lhXLV/Dll1+yPzMTRVWoWrUqd7ZsRbWrqnHo0CH+O306qkuNaMMFc5fNc0AoFDJN0zSDwaBZq+aNZrVKV5rdH+8mrum6Lu7VNM00TdPcnp5uVqlYybyqchWzaqUrzX69+5xU7pdffGFWqVjJvLpKVbNqpSvN5wYnR5RxKhiGcca2nu56+PdnKt808/t7IesvzD1nqt80z97+C4FzSK7WhCfy6ZIl5GRnY5gmu3btYtvWrSed63FU5TXXXstVV1/ND/a5nqVLluD1enmiR3d8MTF88fnnjBw+ImIVtGzd6qztCQ8onipAGXGuhvzjHeF2hhM9NsPOBjmq3fHmTleHU374QfxT1X+66849J4YHwu9xxttJ+XT64TzreKZnquN8UagDYE5kc9XKVYx4/nkyMzMF6+lMRO06dXhlzGuUK1dOCIvzuXbNGp547PGIRB/H3XP+9/l8BINBmtzShLemTYseKb1EUOizxx+89z5DhwwR8YpgMGhZ9KqCLFkGm8frJWXRwlOePZ46ZQoTxo7HME9/9vjKypWZt+BjYmNjo4JyieCCvM3A7/eTnW0Zp07uRIXECixfufKUbzNY/MknvDhqNH8cPBhRj2EYtL/vPoaPfMF6D1z0bQaXDAolKI8/8qh4P0ooFKLFbbcxcNAzFCtalIyMDJ4bnMzu3bvF+1GeHzGMBx58MGLCw0/VbVifZr0fJRCgTNky0fejXMI4q6CEZ7o1a9yEPDsB+ebatZn7wfsR9+7PzOTWZs3Jy81FAmrXrcvs9+aeNOlnSnV0kosulxN0/yso8Mv+ft2zR1DJkiTR6YHOAILICgQClPrXv2jRooW1zZgmv+7ZI84Wh8ujk9nmxHucIJdj2EaF5NJDgd3jE923GF8MQD5tbBucMbEx4h4tLJnpRDhuZxSXBwr8sr9SpUoJTQGQumKFuO6wiAAb0jYI47VkyZJ4PJ4LdrYkir8PZxUUhzCrkJjINddei2GTOvPnzWPGO9NF9DU3N5f+ffry+9691kFsSaJBQyvN72Jlhkfx1+GCvQs/PT2dY1lZIjLr8XhYk7Y++i78fwgKTrjZnkvSoGdJmT8fU5JO/nUNr5dAXgBJlhg/aSKtWreO/rrGPwQFXuaORnj51Vd4qGtXDDsVD6zwiHV2OIg3xieERNO0qJD8QxD9BbAoCoTobwpGUSAUWlAcRH+l9H8L5ywo4YjyJP98/D9Ze+35148AuQAAAABJRU5ErkJggg==;" vertex="1" parent="1">
          <mxGeometry x="660" y="80" width="71.38" height="30" as="geometry" />
        </mxCell>
        <mxCell id="IpySQoxf5-p5Oazan-Eo-16" value="Async&lt;br&gt;Communication" style="text;html=1;strokeColor=none;fillColor=none;align=center;verticalAlign=middle;whiteSpace=wrap;rounded=0;" vertex="1" parent="1">
          <mxGeometry x="650.69" y="165" width="90" height="30" as="geometry" />
        </mxCell>
        <mxCell id="IpySQoxf5-p5Oazan-Eo-19" value="CAE&lt;br&gt;Existing APIs" style="rounded=0;whiteSpace=wrap;html=1;" vertex="1" parent="1">
          <mxGeometry x="780" y="400" width="120" height="60" as="geometry" />
        </mxCell>
        <mxCell id="IpySQoxf5-p5Oazan-Eo-21" style="edgeStyle=orthogonalEdgeStyle;rounded=0;orthogonalLoop=1;jettySize=auto;html=1;exitX=1;exitY=0.5;exitDx=0;exitDy=0;" edge="1" parent="1" source="IpySQoxf5-p5Oazan-Eo-8">
          <mxGeometry relative="1" as="geometry">
            <mxPoint x="530" y="290" as="sourcePoint" />
            <mxPoint x="780" y="430" as="targetPoint" />
          </mxGeometry>
        </mxCell>
        <mxCell id="IpySQoxf5-p5Oazan-Eo-25" value="Async&lt;br&gt;Communication" style="text;html=1;strokeColor=none;fillColor=none;align=center;verticalAlign=middle;whiteSpace=wrap;rounded=0;" vertex="1" parent="1">
          <mxGeometry x="660.69" y="395" width="90" height="30" as="geometry" />
        </mxCell>
      </root>
    </mxGraphModel>
  </diagram>
</mxfile>
